<?xml version="1.0" standalone="no"?><!DOCTYPE svg PUBLIC "-//W3C//DTD SVG 1.1//EN" "http://www.w3.org/Graphics/SVG/1.1/DTD/svg11.dtd"><svg t="1599205356784" class="icon" viewBox="0 0 1024 1024" version="1.1" xmlns="http://www.w3.org/2000/svg" p-id="134102" xmlns:xlink="http://www.w3.org/1999/xlink" width="200" height="200"><defs><style type="text/css"></style></defs><path d="M866.645333 356.266667c-32.042667 0-58.026667 26.538667-58.026666 59.349333v231.808c0 32.725333 25.984 59.349333 58.026666 59.349333 32 0 57.984-26.538667 57.984-59.306666V415.573333c0-32.810667-25.898667-59.306667-58.026666-59.306666z m-708.821333 0c-32 0-57.984 26.538667-57.984 59.349333v231.808c0 32.725333 25.984 59.349333 58.026667 59.349333 32 0 57.984-26.538667 57.984-59.306666V415.573333c0-32.810667-26.026667-59.306667-58.026667-59.306666z m96.426667 1.792v417.109333c0 25.173333 20.309333 45.568 45.226666 45.568h51.712v90.581333c0 32.725333 25.941333 59.349333 57.984 59.349334 32 0 58.026667-26.538667 58.026667-59.306667v-90.709333h90.282667v90.581333c0 32.725333 25.984 59.306667 58.026666 59.306667 32 0 57.941333-26.496 57.941334-59.306667v-90.581333h51.669333c24.96 0 45.226667-20.437333 45.226667-45.568V358.058667H254.293333z m379.178666-219.434667l47.658667-69.674667c2.816-4.096 2.133333-9.557333-1.578667-12.16-3.712-2.56-9.002667-1.28-11.818666 2.816l-49.493334 72.448a290.218667 290.218667 0 0 0-107.093333-20.138666c-38.144 0-74.453333 7.210667-107.050667 20.138666L354.56 59.733333c-2.816-4.138667-8.106667-5.418667-11.861333-2.816-3.712 2.56-4.352 7.978667-1.578667 12.202667L388.778667 138.666667C313.002667 174.250667 259.84 241.621333 253.056 320.426667h516.096c-6.784-78.848-59.946667-146.218667-135.68-181.76zM402.346667 248.490667a28.672 28.672 0 0 1-28.586667-28.8c0-15.829333 12.757333-28.757333 28.586667-28.757334a28.8 28.8 0 0 1 0 57.557334z m221.269333 0a28.672 28.672 0 0 1-28.586667-28.8c0-15.829333 12.757333-28.757333 28.586667-28.757334a28.8 28.8 0 0 1 0 57.557334z" p-id="134103" fill="#616161"></path></svg>